HIERARCHY
ROOT joint_Root
{
	OFFSET 0.0 0.0 0.0
	CHANNELS 6 Xposition Yposition Zposition Zrotation Xrotation Yrotation 
	JOINT Hips
	{
		OFFSET -17.1583 93.1646 452.98
		CHANNELS 6 Xposition Yposition Zposition Zrotation Xrotation Yrotation 
		JOINT Spine
		{
			OFFSET 15.7357 0.0 0.0
			CHANNELS 6 Xposition Yposition Zposition Zrotation Xrotation Yrotation 
			JOINT Chest
			{
				OFFSET 8.98455 -0.406207 0.0
				CHANNELS 6 Xposition Yposition Zposition Zrotation Xrotation Yrotation 
				JOINT Neck
				{
					OFFSET 16.3773 0.0 0.0
					CHANNELS 6 Xposition Yposition Zposition Zrotation Xrotation Yrotation 
					JOINT Head
					{
						OFFSET 6.45672 0.0 0.0
						CHANNELS 6 Xposition Yposition Zposition Zrotation Xrotation Yrotation 
						End Site
						{
							OFFSET 0.0 0.0 0.0
						}
					}
				}
				JOINT Shoulder_L
				{
					OFFSET 12.9942 -0.242716 4.98039
					CHANNELS 6 Xposition Yposition Zposition Zrotation Xrotation Yrotation 
					JOINT UpperArm_L
					{
						OFFSET 5.34809 0.0 0.0
						CHANNELS 6 Xposition Yposition Zposition Zrotation Xrotation Yrotation 
						JOINT LowerArm_L
						{
							OFFSET 24.3286 1.87007e-05 0.0
							CHANNELS 6 Xposition Yposition Zposition Zrotation Xrotation Yrotation 
							JOINT Hand_L
							{
								OFFSET 22.2916 0.0 0.0
								CHANNELS 6 Xposition Yposition Zposition Zrotation Xrotation Yrotation 
								End Site
								{
									OFFSET 0.0 0.0 0.0
								}
							}
						}
					}
				}
				JOINT Shoulder_R
				{
					OFFSET 12.9945 -0.242716 -4.98039
					CHANNELS 6 Xposition Yposition Zposition Zrotation Xrotation Yrotation 
					JOINT UpperArm_R
					{
						OFFSET -5.34813 0.0 0.0
						CHANNELS 6 Xposition Yposition Zposition Zrotation Xrotation Yrotation 
						JOINT LowerArm_R
						{
							OFFSET -24.3289 0.000322201 0.0
							CHANNELS 6 Xposition Yposition Zposition Zrotation Xrotation Yrotation 
							JOINT Hand_R
							{
								OFFSET -22.2915 -0.000108084 0.0
								CHANNELS 6 Xposition Yposition Zposition Zrotation Xrotation Yrotation 
								End Site
								{
									OFFSET 0.0 0.0 0.0
								}
							}
						}
					}
				}
			}
		}
		JOINT UpperLeg_L
		{
			OFFSET -2.19248 -6.46944 0.0
			CHANNELS 6 Xposition Yposition Zposition Zrotation Xrotation Yrotation 
			JOINT LowerLeg_L
			{
				OFFSET 39.0811 0.0 -1.23785e-05
				CHANNELS 6 Xposition Yposition Zposition Zrotation Xrotation Yrotation 
				JOINT Foot_L
				{
					OFFSET 40.9854 0.0 -1.26872e-05
					CHANNELS 6 Xposition Yposition Zposition Zrotation Xrotation Yrotation 
					JOINT Toes_L
					{
						OFFSET 11.7543 0.0 0.0
						CHANNELS 6 Xposition Yposition Zposition Zrotation Xrotation Yrotation 
						End Site
						{
							OFFSET 0.0 0.0 0.0
						}
					}
				}
			}
		}
		JOINT UpperLeg_R
		{
			OFFSET -2.19251 6.46944 0.0
			CHANNELS 6 Xposition Yposition Zposition Zrotation Xrotation Yrotation 
			JOINT LowerLeg_R
			{
				OFFSET -39.0811 -0.00228153 -0.0401928
				CHANNELS 6 Xposition Yposition Zposition Zrotation Xrotation Yrotation 
				JOINT Foot_R
				{
					OFFSET -40.9854 0.0 0.0
					CHANNELS 6 Xposition Yposition Zposition Zrotation Xrotation Yrotation 
					JOINT Toes_R
					{
						OFFSET -11.7543 0.0 0.0
						CHANNELS 6 Xposition Yposition Zposition Zrotation Xrotation Yrotation 
						End Site
						{
							OFFSET 0.0 0.0 0.0
						}
					}
				}
			}
		}
	}
}
MOTION
Frames:	8
Frame Time:	0.0333333
0.000000 0.000000 0.000000 0.000000 0.000000 -0.000000 184.763000 90.333800 -168.023000 88.217300 2.307790 -8.298270 15.735700 0.000005 -0.000001 18.070600 86.567200 -15.629200 8.984550 -0.406207 -0.000000 -5.507640 -6.801080 4.564860 16.377300 -0.000001 -0.000001 0.148893 4.177460 -4.896790 6.456720 -0.000001 -0.000000 0.131650 7.096380 -2.280750 12.994200 -0.242716 4.980390 -92.366600 7.496190 -72.422400 5.348090 -0.000007 -0.000001 -65.042700 0.613342 -16.365500 24.328600 0.000019 0.000005 34.333600 12.161600 -72.858000 22.291600 -0.000001 0.000005 33.955300 4.893600 9.505220 12.994500 -0.242716 -4.980390 89.325200 1.885490 -70.304300 -5.348130 -0.000001 -0.000004 -41.673600 -32.743300 18.509600 -24.328900 0.000322 -0.000009 -0.419743 -17.324200 -1.405670 -22.291500 -0.000108 -0.000004 24.751000 5.218480 2.262090 -2.192480 -6.469440 -0.000000 -175.129000 -8.158820 8.826500 39.081100 -0.000007 -0.000012 0.005010 -0.014664 18.862400 40.985400 -0.000006 -0.000013 1.127000 22.213600 -56.187300 11.754300 -0.000000 0.000003 -0.137343 -0.529121 -38.879900 -2.192510 6.469440 -0.000001 -174.340000 0.839424 144.614000 -39.081100 -0.002282 -0.040193 0.017846 -0.037751 21.046900 -40.985400 0.000008 0.000006 -6.082550 -7.187980 -61.246900 -11.754300 -0.000006 -0.000006 0.001590 0.134224 -11.130100
0.000000 0.000000 0.000000 0.000000 0.000000 -0.000000 184.607000 89.815800 -162.722000 87.124800 3.892590 -8.518850 15.735700 0.000005 -0.000001 8.625620 86.814900 -5.449690 8.984550 -0.406207 -0.000000 -6.642280 -6.685070 5.978930 16.377300 -0.000001 -0.000001 0.576781 3.815160 -5.661040 6.456720 -0.000001 -0.000000 1.225400 6.319510 -3.971840 12.994200 -0.242716 4.980390 -92.668300 8.303110 -72.114200 5.348090 -0.000007 -0.000001 -67.594900 3.247440 -12.013400 24.328600 0.000019 0.000005 33.255500 15.033800 -68.419000 22.291600 -0.000001 0.000005 28.631200 4.917400 8.994630 12.994500 -0.242716 -4.980390 89.321900 1.860990 -69.975600 -5.348130 -0.000001 -0.000004 -41.270600 -35.305200 19.164900 -24.328900 0.000322 -0.000009 -0.622939 -21.851500 -1.670340 -22.291500 -0.000108 -0.000004 26.191500 5.261650 1.122910 -2.192480 -6.469440 -0.000000 -173.590000 -6.212590 8.436410 39.081100 -0.000007 -0.000012 0.015970 -0.038533 22.511900 40.985400 -0.000006 -0.000013 0.597717 21.763600 -49.899000 11.754300 -0.000000 0.000003 -0.224088 -0.683703 -46.071400 -2.192510 6.469440 -0.000001 -173.025000 0.550368 142.878000 -39.081100 -0.002282 -0.040193 0.011517 -0.014930 28.815200 -40.985400 0.000008 0.000006 -2.604880 -6.933280 -60.237200 -11.754300 -0.000006 -0.000006 0.000573 0.157396 -10.189900
0.000000 0.000000 0.000000 0.000000 0.000000 -0.000000 184.542000 89.223300 -157.275000 86.234800 5.095220 -6.951880 15.735700 0.000005 -0.000001 10.863900 86.916200 -7.054670 8.984550 -0.406207 -0.000000 -6.397920 -6.516730 7.271320 16.377300 -0.000001 -0.000001 0.704878 3.643350 -6.099640 6.456720 -0.000001 -0.000000 2.093150 5.760890 -6.124420 12.994200 -0.242716 4.980390 -92.933800 9.061210 -71.974400 5.348090 -0.000007 -0.000001 -70.447100 4.114910 -8.154700 24.328600 0.000019 0.000005 30.992300 19.519500 -60.913600 22.291600 -0.000001 0.000005 16.608000 4.989030 7.519990 12.994500 -0.242716 -4.980390 89.229600 2.092120 -69.780000 -5.348130 -0.000001 -0.000004 -43.747800 -34.218500 16.893300 -24.328900 0.000322 -0.000009 -0.650150 -23.183800 -1.648440 -22.291500 -0.000108 -0.000004 25.659000 5.271750 0.852735 -2.192480 -6.469440 -0.000000 -172.242000 -4.330840 8.143160 39.081100 -0.000007 -0.000012 0.022315 -0.041012 28.550400 40.985400 -0.000006 -0.000013 -0.085823 21.784100 -42.031300 11.754300 -0.000000 0.000003 -0.226630 -0.687619 -46.260700 -2.192510 6.469440 -0.000001 -172.173000 0.533695 143.774000 -39.081100 -0.002282 -0.040193 0.015241 -0.016027 36.718100 -40.985400 0.000008 0.000006 -2.902580 -7.889070 -65.723300 -11.754300 -0.000006 -0.000006 -0.002410 0.201406 -8.401590
0.000000 0.000000 0.000000 0.000000 0.000000 -0.000000 184.459000 88.639500 -152.082000 85.577100 7.148050 -4.446420 15.735700 0.000005 -0.000001 19.727800 86.728300 -15.479500 8.984550 -0.406207 -0.000000 -5.315560 -6.636260 8.204230 16.377300 -0.000001 -0.000001 0.845662 3.216070 -6.338480 6.456720 -0.000001 -0.000000 2.423110 4.985680 -7.832850 12.994200 -0.242716 4.980390 -93.325900 10.355200 -72.083500 5.348090 -0.000007 -0.000001 -71.272400 6.486120 -6.744310 24.328600 0.000019 0.000005 23.660900 24.090900 -47.005500 22.291600 -0.000001 0.000005 6.134160 5.005260 7.202350 12.994500 -0.242716 -4.980390 88.948900 2.826320 -69.591000 -5.348130 -0.000001 -0.000004 -47.653800 -32.056300 13.141100 -24.328900 0.000322 -0.000009 -0.686262 -21.397200 -1.877790 -22.291500 -0.000108 -0.000004 23.153400 5.258910 1.200960 -2.192480 -6.469440 -0.000000 -170.411000 -2.183410 5.863180 39.081100 -0.000007 -0.000012 0.055646 -0.072366 37.557800 40.985400 -0.000006 -0.000013 -5.408600 21.328800 -31.768500 11.754300 -0.000000 0.000003 -0.083296 -0.401076 -33.242900 -2.192510 6.469440 -0.000001 -170.922000 3.473510 147.227000 -39.081100 -0.002282 -0.040193 0.021688 -0.020569 41.837800 -40.985400 0.000008 0.000006 -2.985410 -6.954300 -71.686200 -11.754300 -0.000006 -0.000006 -0.003831 0.217338 -7.753160
0.000000 0.000000 0.000000 0.000000 0.000000 -0.000000 184.404000 88.351300 -147.551000 84.703500 9.377240 -2.310780 15.735700 0.000005 -0.000001 27.436000 86.688100 -22.763800 8.984550 -0.406207 -0.000000 -4.450720 -6.371110 9.110540 16.377300 -0.000001 -0.000001 1.009970 2.623300 -6.675680 6.456720 -0.000001 -0.000000 2.777350 3.753950 -8.617900 12.994200 -0.242716 4.980390 -93.653800 11.733400 -72.566600 5.348090 -0.000007 -0.000001 -70.773000 11.393400 -7.619230 24.328600 0.000019 0.000005 12.014800 26.143100 -25.780900 22.291600 -0.000001 0.000005 -2.565860 5.046140 6.286530 12.994500 -0.242716 -4.980390 88.644700 3.612860 -69.420700 -5.348130 -0.000001 -0.000004 -52.659900 -27.605300 8.645640 -24.328900 0.000322 -0.000009 -0.969032 -20.537800 -2.757440 -22.291500 -0.000108 -0.000004 19.324500 5.249180 1.462820 -2.192480 -6.469440 -0.000000 -168.472000 0.023269 0.873380 39.081100 -0.000007 -0.000012 0.160646 -0.151200 46.734500 40.985400 -0.000006 -0.000013 -12.636600 16.392400 -19.403700 11.754300 -0.000000 0.000003 0.001594 0.033583 -15.214500 -2.192510 6.469440 -0.000001 -169.779000 7.031930 151.384000 -39.081100 -0.002282 -0.040193 0.025508 -0.023089 43.928100 -40.985400 0.000008 0.000006 -3.049720 -5.654430 -75.899100 -11.754300 -0.000006 -0.000006 -0.004376 0.222967 -7.523900
0.000000 0.000000 0.000000 0.000000 0.000000 -0.000000 184.488000 88.613800 -143.550000 84.409600 10.604500 -1.100330 15.735700 0.000005 -0.000001 33.788300 86.833300 -29.113600 8.984550 -0.406207 -0.000000 -4.002090 -5.739450 9.159690 16.377300 -0.000001 -0.000001 0.733397 2.231950 -6.234980 6.456720 -0.000001 -0.000000 3.755940 2.853610 -8.586500 12.994200 -0.242716 4.980390 -93.539800 11.756600 -73.111900 5.348090 -0.000007 -0.000001 -71.978500 11.078600 -7.161620 24.328600 0.000019 0.000005 4.183450 33.542000 -7.563990 22.291600 -0.000001 0.000005 -11.018400 5.022370 6.896360 12.994500 -0.242716 -4.980390 88.417300 4.337240 -69.929400 -5.348130 -0.000001 -0.000004 -58.136600 -21.474800 3.496720 -24.328900 0.000322 -0.000009 -1.281350 -19.228700 -3.883270 -22.291500 -0.000108 -0.000004 14.833100 5.243200 1.614860 -2.192480 -6.469440 -0.000000 -167.862000 1.122670 -5.340830 39.081100 -0.000007 -0.000012 0.248487 -0.165907 56.269800 40.985400 -0.000006 -0.000013 -12.278800 12.423000 -23.072700 11.754300 -0.000000 0.000003 0.001142 0.022156 -15.678100 -2.192510 6.469440 -0.000001 -169.605000 8.597070 155.787000 -39.081100 -0.002282 -0.040193 0.020994 -0.018830 43.268700 -40.985400 0.000008 0.000006 -3.427560 -5.320450 -78.170000 -11.754300 -0.000006 -0.000006 -0.004404 0.223247 -7.512470
0.000000 0.000000 0.000000 0.000000 0.000000 -0.000000 184.813000 89.404400 -139.821000 85.041000 10.183200 -0.315613 15.735700 0.000005 -0.000001 45.077700 87.070600 -40.871200 8.984550 -0.406207 -0.000000 -3.441760 -4.545930 8.282530 16.377300 -0.000001 -0.000001 0.318037 2.358940 -5.734460 6.456720 -0.000001 -0.000000 4.461830 2.418450 -7.574520 12.994200 -0.242716 4.980390 -93.189500 10.469500 -72.950700 5.348090 -0.000007 -0.000001 -73.280400 6.871840 -3.416070 24.328600 0.000019 0.000005 -0.001175 44.006900 -0.000007 22.291600 -0.000001 0.000005 -16.543500 4.782760 11.703200 12.994500 -0.242716 -4.980390 88.296100 4.862020 -70.659500 -5.348130 -0.000001 -0.000004 -63.251000 -13.963800 -2.179660 -24.328900 0.000322 -0.000009 -1.697850 -16.097000 -6.105900 -22.291500 -0.000108 -0.000004 10.040800 5.231620 1.919850 -2.192480 -6.469440 -0.000000 -168.857000 0.503760 -10.579600 39.081100 -0.000007 -0.000012 0.268047 -0.140793 62.288400 40.985400 -0.000006 -0.000013 -10.308700 10.982700 -32.600600 11.754300 -0.000000 0.000003 0.001658 0.035398 -15.140800 -2.192510 6.469440 -0.000001 -170.603000 8.331140 161.032000 -39.081100 -0.002282 -0.040193 0.011317 -0.009467 40.336800 -40.985400 0.000008 0.000006 -3.824720 -5.208370 -78.942300 -11.754300 -0.000006 -0.000006 -0.004292 0.222116 -7.558540
0.000000 0.000000 0.000000 0.000000 0.000000 -0.000000 185.354000 90.538900 -136.269000 86.420200 8.747960 -0.008621 15.735700 0.000005 -0.000001 63.365500 87.374800 -59.887200 8.984550 -0.406207 -0.000000 -2.983460 -2.678690 6.888850 16.377300 -0.000001 -0.000001 -0.024520 2.437770 -5.000420 6.456720 -0.000001 -0.000000 4.601900 2.006980 -7.190040 12.994200 -0.242716 4.980390 -93.051000 9.576010 -72.234100 5.348090 -0.000007 -0.000001 -72.049000 1.803210 2.366990 24.328600 0.000019 0.000005 1.086090 56.463100 -1.301040 22.291600 -0.000001 0.000005 -21.568300 4.832700 10.681000 12.994500 -0.242716 -4.980390 88.276000 5.077020 -71.215600 -5.348130 -0.000001 -0.000004 -66.493100 -5.873820 -6.622730 -24.328900 0.000322 -0.000009 -1.959190 -9.739030 -11.466900 -22.291500 -0.000108 -0.000004 4.363140 5.234760 1.799530 -2.192480 -6.469440 -0.000000 -171.149000 -0.699381 -14.924400 39.081100 -0.000007 -0.000012 0.262464 -0.128814 63.858000 40.985400 -0.000006 -0.000013 -9.733110 8.943150 -39.866000 11.754300 -0.000000 0.000003 0.001824 0.040518 -14.933200 -2.192510 6.469440 -0.000001 -172.520000 7.255580 166.748000 -39.081100 -0.002282 -0.040193 0.001202 0.002926 35.511300 -40.985400 0.000008 0.000006 -4.237980 -4.769970 -78.430500 -11.754300 -0.000006 -0.000006 -0.004309 0.222289 -7.551510
